<svg xmlns="http://www.w3.org/2000/svg" viewBox="0 0 512 512" id="gallows"><path fill="#a17855" d="M30.8 65h40v439.5h-40z"></path><path fill="#8e684c" d="M55.8 65h15v439.5h-15z"></path><path fill="#a17855" d="M441.2 65h40v439.5h-40z"></path><path fill="#896848" d="M466.2 65h15v439.5h-15z"></path><path fill="#b28b6a" d="M441.2 193.03 312.67 64.5h56.56l71.97 71.97v56.56z"></path><path fill="#8e684c" d="M369.23 64.5h-15l66.11 66.11a20 20 0 0 1 5.86 14.14V178l15 15v-56.53Z"></path><path fill="#b28b6a" d="M70.8 193.03 199.34 64.5h-56.57L70.8 136.47v56.56z"></path><path fill="#8e684c" d="M184.34 64.5 70.8 178.03v15L199.34 64.5h-15z"></path><rect width="52.18" height="30" x="229.91" y="128.92" fill="#787681" rx="15" transform="rotate(-13.42 256.063 143.962)"></rect><path fill="#57565c" d="M281.38 137.87a15 15 0 0 0-18.08-11.11l-4.85 1.16a15 15 0 0 1 7.93 10 15 15 0 0 1-11.11 18.07l-16.72 4a14.91 14.91 0 0 0 10.15 1.16l21.57-5.15a15 15 0 0 0 11.11-18.13Z"></path><path fill="#b28b6a" d="M7.5 7.5h497v57H7.5z"></path><path fill="#a17855" d="M489.5 7.5v22a20 20 0 0 1-20 20H7.5v15h497v-57Z"></path><path fill="#b28b6a" d="M70.8 393.4h370.4v109.9H70.8z"></path><path fill="#57565c" d="M504.5 512H7.5a7.5 7.5 0 0 1 0-15h497a7.5 7.5 0 0 1 0 15Z"></path><path d="M412.72 430.35a7.5 7.5 0 1 0-7.5-7.5 7.5 7.5 0 0 0 7.5 7.5Zm0 51a7.5 7.5 0 1 0-7.5-7.5 7.5 7.5 0 0 0 7.5 7.5Zm-213.22-20h-19a7.5 7.5 0 0 0 0 15h19a7.5 7.5 0 0 0 0-15Zm130-26h44a7.5 7.5 0 0 0 0-15h-44a7.5 7.5 0 0 0 0 15Zm-230.22 46a7.5 7.5 0 1 0-7.5-7.5 7.5 7.5 0 0 0 7.5 7.5Zm0-51a7.5 7.5 0 1 0-7.5-7.5 7.5 7.5 0 0 0 7.5 7.5ZM504.5 72a7.5 7.5 0 0 0 7.5-7.5v-57a7.5 7.5 0 0 0-7.5-7.5H7.5A7.5 7.5 0 0 0 0 7.5v57A7.5 7.5 0 0 0 7.5 72h15.8v425H7.5a7.5 7.5 0 0 0 0 15h497a7.5 7.5 0 0 0 0-15h-15.8V72ZM63.3 497h-25V72h25Zm370.4 0H78.3v-96.1h355.4Zm0-111.1H78.3V196.14L202.44 72h46.06v50.58l-8.51 2a22.48 22.48 0 0 0-4.19 42.3c-15.15 15.51-33.59 38.16-33.59 56.53a53.79 53.79 0 0 0 107.58 0c0-20-22.3-45.43-37.37-60.31a22.49 22.49 0 0 0-8.92-44V72h46.06L433.7 196.14ZM145.87 72h35.36L78.3 174.93v-35.36ZM78.3 118.36V72h46.36Zm190.23 30.28L247 153.79a7.51 7.51 0 0 1-9-5.55 7.49 7.49 0 0 1 5.55-9l21.58-5.15a7.48 7.48 0 0 1 1.75-.21 7.5 7.5 0 0 1 1.73 14.8Zm26.26 74.8a38.79 38.79 0 0 1-77.58 0c0-14.3 20.25-38.06 38.79-55.27 19.89 18.42 38.79 41.74 38.79 55.27Zm138.91-48.51L330.77 72h35.36l67.57 67.57Zm0-56.57L387.34 72h46.36Zm40 378.64h-25V72h25ZM15 57V15h482v42Zm132.5 378.35h52a7.5 7.5 0 0 0 0-15h-52a7.5 7.5 0 0 0 0 15Zm123.5 33.5a7.5 7.5 0 0 0 7.5 7.5h52a7.5 7.5 0 0 0 0-15h-52a7.5 7.5 0 0 0-7.5 7.5Zm-22.5-33.5h20a7.5 7.5 0 0 0 0-15h-20a7.5 7.5 0 0 0 0 15Z"></path></svg>